<svg width="82" height="82" viewBox="0 0 82 82" fill="none" xmlns="http://www.w3.org/2000/svg">
<path d="M29.6567 43.4601H35.6017V57.2976C35.6017 59.3476 38.13 60.3043 39.4967 58.7668L54.0517 42.2301C55.3159 40.7951 54.2909 38.5401 52.3775 38.5401H46.4325V24.7026C46.4325 22.6526 43.9042 21.6959 42.5375 23.2334L27.9825 39.7701C26.7184 41.2051 27.7434 43.4601 29.6567 43.4601Z" stroke="#946CAC" stroke-width="3" stroke-miterlimit="10" stroke-linecap="round" stroke-linejoin="round"/>
<path d="M40.8975 75.1668C59.7672 75.1668 75.0642 59.8699 75.0642 41.0002C75.0642 22.1304 59.7672 6.8335 40.8975 6.8335C22.0278 6.8335 6.73083 22.1304 6.73083 41.0002C6.73083 59.8699 22.0278 75.1668 40.8975 75.1668Z" stroke="#946CAC" stroke-width="3" stroke-miterlimit="10" stroke-linecap="round" stroke-linejoin="round"/>
</svg>
