<svg width="22" height="22" viewBox="0 0 22 22" fill="none" xmlns="http://www.w3.org/2000/svg">
<path d="M21.6288 6.61007C21.6168 5.7103 21.4484 4.81949 21.131 3.97746C20.8558 3.26722 20.4355 2.62219 19.8969 2.08359C19.3583 1.54499 18.7133 1.12466 18.003 0.849456C17.1718 0.537436 16.2937 0.368722 15.4061 0.350496C14.2632 0.299412 13.9009 0.285156 10.9998 0.285156C8.09867 0.285156 7.72682 0.285156 6.59228 0.350496C5.70504 0.368856 4.82733 0.537568 3.9965 0.849456C3.28615 1.12447 2.64102 1.54473 2.1024 2.08335C1.56377 2.62198 1.14351 3.26711 0.868499 3.97746C0.555854 4.80803 0.387506 5.68594 0.370727 6.57324C0.319643 7.71728 0.304199 8.07962 0.304199 10.9807C0.304199 13.8818 0.304199 14.2525 0.370727 15.3882C0.388547 16.2768 0.556055 17.1536 0.868499 17.9864C1.14397 18.6965 1.56454 19.3414 2.10335 19.8798C2.64215 20.4182 3.28734 20.8382 3.99769 21.1132C4.82624 21.4377 5.7041 21.6185 6.59347 21.6478C7.73752 21.6989 8.09986 21.7143 11.001 21.7143C13.902 21.7143 14.2739 21.7143 15.4084 21.6478C16.296 21.6303 17.1742 21.462 18.0054 21.15C18.7155 20.8745 19.3603 20.454 19.8989 19.9155C20.4374 19.3769 20.8579 18.7321 21.1334 18.022C21.4458 17.1904 21.6134 16.3137 21.6312 15.4238C21.6823 14.281 21.6977 13.9186 21.6977 11.0164C21.6953 8.11526 21.6953 7.74698 21.6288 6.61007ZM10.9926 16.4669C7.95848 16.4669 5.50051 14.0089 5.50051 10.9748C5.50051 7.94063 7.95848 5.48266 10.9926 5.48266C12.4492 5.48266 13.8462 6.06129 14.8762 7.09126C15.9061 8.12124 16.4848 9.51818 16.4848 10.9748C16.4848 12.4314 15.9061 13.8283 14.8762 14.8583C13.8462 15.8883 12.4492 16.4669 10.9926 16.4669ZM16.7034 6.56017C16.5351 6.56033 16.3685 6.52731 16.2131 6.46301C16.0576 6.3987 15.9164 6.30437 15.7974 6.18542C15.6785 6.06647 15.5842 5.92523 15.5199 5.76978C15.4555 5.61433 15.4225 5.44773 15.4227 5.27951C15.4227 5.11141 15.4558 4.94495 15.5201 4.78965C15.5845 4.63434 15.6787 4.49323 15.7976 4.37436C15.9165 4.2555 16.0576 4.16121 16.2129 4.09688C16.3682 4.03255 16.5347 3.99944 16.7028 3.99944C16.8709 3.99944 17.0373 4.03255 17.1926 4.09688C17.3479 4.16121 17.489 4.2555 17.6079 4.37436C17.7268 4.49323 17.8211 4.63434 17.8854 4.78965C17.9497 4.94495 17.9828 5.11141 17.9828 5.27951C17.9828 5.98756 17.4102 6.56017 16.7034 6.56017Z" fill="white"/>
<path d="M10.9926 14.5423C12.9629 14.5423 14.5602 12.9451 14.5602 10.9748C14.5602 9.00447 12.9629 7.40722 10.9926 7.40722C9.02232 7.40722 7.42507 9.00447 7.42507 10.9748C7.42507 12.9451 9.02232 14.5423 10.9926 14.5423Z" fill="white"/>
</svg>
