<svg width="82" height="82" viewBox="0 0 82 82" fill="none" xmlns="http://www.w3.org/2000/svg">
<path d="M36.7291 8.37076C39.0866 6.35493 42.9474 6.35493 45.339 8.37076L50.7374 13.0178C51.7624 13.9061 53.6757 14.6235 55.0424 14.6235H60.8507C64.4724 14.6235 67.4449 17.5958 67.4449 21.2175V27.026C67.4449 28.3585 68.1624 30.3061 69.0507 31.3311L73.6974 36.7293C75.7133 39.0868 75.7133 42.9477 73.6974 45.3393L69.0507 50.7375C68.1624 51.7625 67.4449 53.6759 67.4449 55.0425V60.8511C67.4449 64.4728 64.4724 67.4451 60.8507 67.4451H55.0424C53.7099 67.4451 51.7624 68.1625 50.7374 69.0508L45.339 73.6974C42.9815 75.7132 39.1208 75.7132 36.7291 73.6974L31.3308 69.0508C30.3058 68.1625 28.3924 67.4451 27.0258 67.4451H21.1149C17.4932 67.4451 14.5208 64.4728 14.5208 60.8511V55.0083C14.5208 53.6758 13.8033 51.7625 12.9491 50.7375L8.33659 45.3051C6.35493 42.9476 6.35493 39.121 8.33659 36.7635L12.9491 31.3311C13.8033 30.3061 14.5208 28.3927 14.5208 27.0602V21.2175C14.5208 17.5958 17.4932 14.6235 21.1149 14.6235H27.0258C28.3583 14.6235 30.3058 13.9061 31.3308 13.0178L36.7291 8.37076Z" stroke="#946CAC" stroke-width="3" stroke-linecap="round" stroke-linejoin="round"/>
<path d="M33.7908 50.6348L38.7449 54.4614C39.3941 55.1106 40.8291 55.4182 41.7858 55.4182H47.8333C49.7466 55.4182 51.8308 53.9833 52.3091 52.0699L56.1357 40.3848C56.9216 38.164 55.4866 36.2166 53.095 36.2166H46.7058C45.7491 36.2166 44.9633 35.4309 45.1 34.3034L45.8857 29.1784C46.1932 27.7434 45.2366 26.1375 43.8016 25.6592C42.5375 25.1808 40.9316 25.8299 40.2825 26.7865L33.7224 36.5239" stroke="#946CAC" stroke-width="3" stroke-miterlimit="10"/>
<path d="M25.625 50.6349V34.9867C25.625 32.7317 26.5817 31.9458 28.8367 31.9458H30.4425C32.6633 31.9458 33.6542 32.7317 33.6542 34.9867V50.6349C33.6542 52.8557 32.6975 53.6758 30.4425 53.6758H28.8367C26.5817 53.6758 25.625 52.8899 25.625 50.6349Z" stroke="#946CAC" stroke-width="3" stroke-linecap="round" stroke-linejoin="round"/>
</svg>
