<svg width="65" height="64" viewBox="0 0 65 64" fill="none" xmlns="http://www.w3.org/2000/svg">
<path d="M20.6133 48.9336L28.8799 55.3336C29.9466 56.4002 32.3466 56.9336 33.9466 56.9336H44.08C47.28 56.9336 50.7466 54.5336 51.5466 51.3336L57.9466 31.8669C59.2799 28.1336 56.88 24.9336 52.8799 24.9336H42.2133C40.6133 24.9336 39.2799 23.6002 39.5466 21.7336L40.8799 13.2002C41.4133 10.8002 39.8133 8.13357 37.4133 7.33357C35.2799 6.53357 32.6133 7.60024 31.5466 9.20024L20.6133 25.4669" stroke="#946CAC" stroke-width="3" stroke-miterlimit="10"/>
<path d="M7.01331 48.9334V22.8001C7.01331 19.0667 8.61331 17.7334 12.3466 17.7334H15.0133C18.7466 17.7334 20.3466 19.0667 20.3466 22.8001V48.9334C20.3466 52.6667 18.7466 54.0001 15.0133 54.0001H12.3466C8.61331 54.0001 7.01331 52.6667 7.01331 48.9334Z" stroke="#946CAC" stroke-width="3" stroke-linecap="round" stroke-linejoin="round"/>
</svg>
