<svg width="82" height="82" viewBox="0 0 82 82" fill="none" xmlns="http://www.w3.org/2000/svg">
<path d="M67.8549 27.6409C67.8549 29.0759 67.7524 30.4768 67.5816 31.8093C66.0099 31.1259 64.3016 30.7501 62.4908 30.7501C58.3224 30.7501 54.6324 32.7659 52.3433 35.8409C50.0199 32.7659 46.3299 30.7501 42.1616 30.7501C35.1574 30.7501 29.4858 36.4559 29.4858 43.5284C29.4858 52.6851 34.3374 59.6892 39.7358 64.4384C39.5649 64.5409 39.3941 64.5752 39.2233 64.6435C38.1983 65.0193 36.4899 65.0193 35.4649 64.6435C26.6158 61.6027 6.83325 49.0293 6.83325 27.6409C6.83325 18.2109 14.4182 10.5918 23.7799 10.5918C29.3491 10.5918 34.2691 13.2568 37.3441 17.3909C40.4532 13.2568 45.3732 10.5918 50.9082 10.5918C60.2699 10.5918 67.8549 18.2109 67.8549 27.6409Z" stroke="#946CAC" stroke-width="3" stroke-linecap="round" stroke-linejoin="round"/>
<path d="M75.1667 43.5283C75.1667 59.5183 60.3725 68.9483 53.7442 71.2033C52.9584 71.4767 51.6941 71.4767 50.9083 71.2033C48.0725 70.2467 43.7333 67.9574 39.7358 64.4383C34.3375 59.6891 29.4858 52.685 29.4858 43.5283C29.4858 36.4558 35.1575 30.75 42.1616 30.75C46.33 30.75 50.02 32.7658 52.3433 35.8408C54.6325 32.7658 58.3225 30.75 62.4909 30.75C64.3017 30.75 66.01 31.1258 67.5817 31.8092C72.0575 33.7908 75.1667 38.2666 75.1667 43.5283Z" stroke="#946CAC" stroke-width="3" stroke-linecap="round" stroke-linejoin="round"/>
</svg>
