<svg width="65" height="64" viewBox="0 0 65 64" fill="none" xmlns="http://www.w3.org/2000/svg">
<path d="M9.66659 54.6665C11.8799 56.8798 15.4533 56.8798 17.6666 54.6665L52.3333 19.9998C54.5466 17.7865 54.5466 14.2132 52.3333 11.9998C50.1199 9.78651 46.5466 9.78651 44.3333 11.9998L9.66659 46.6665C7.45326 48.8798 7.45326 52.4532 9.66659 54.6665Z" stroke="#946CAC" stroke-width="3" stroke-linecap="round" stroke-linejoin="round"/>
<path d="M48.3599 23.9731L40.3599 15.9731" stroke="#946CAC" stroke-width="3" stroke-linecap="round" stroke-linejoin="round"/>
<path d="M23 6.50683L27 5.3335L25.8267 9.3335L27 13.3335L23 12.1602L19 13.3335L20.1733 9.3335L19 5.3335L23 6.50683Z" stroke="#946CAC" stroke-width="3" stroke-linecap="round" stroke-linejoin="round"/>
<path d="M12.3333 22.5068L16.3333 21.3335L15.1599 25.3335L16.3333 29.3335L12.3333 28.1602L8.33325 29.3335L9.50659 25.3335L8.33325 21.3335L12.3333 22.5068Z" stroke="#946CAC" stroke-width="3" stroke-linecap="round" stroke-linejoin="round"/>
<path d="M52.3333 35.8398L56.3333 34.6665L55.1599 38.6665L56.3333 42.6665L52.3333 41.4932L48.3333 42.6665L49.5066 38.6665L48.3333 34.6665L52.3333 35.8398Z" stroke="#946CAC" stroke-width="3" stroke-linecap="round" stroke-linejoin="round"/>
</svg>
