<svg width="64" height="64" viewBox="0 0 64 64" fill="none" xmlns="http://www.w3.org/2000/svg">
<path d="M50.6667 42.6667V17.3333C50.6667 14.4 48.2667 12 45.3334 12H30.6667" stroke="#946CAC" stroke-width="3" stroke-linecap="round" stroke-linejoin="round"/>
<path d="M37.3333 5.3335L29.3333 12.0002L37.3333 18.6668" stroke="#946CAC" stroke-width="3" stroke-linecap="round" stroke-linejoin="round"/>
<path d="M50.6667 58.6665C55.085 58.6665 58.6667 55.0848 58.6667 50.6665C58.6667 46.2482 55.085 42.6665 50.6667 42.6665C46.2485 42.6665 42.6667 46.2482 42.6667 50.6665C42.6667 55.0848 46.2485 58.6665 50.6667 58.6665Z" stroke="#946CAC" stroke-width="3" stroke-linecap="round" stroke-linejoin="round"/>
<path d="M13.3333 21.3335V46.6668C13.3333 49.6002 15.7333 52.0002 18.6666 52.0002H33.3333" stroke="#946CAC" stroke-width="3" stroke-linecap="round" stroke-linejoin="round"/>
<path d="M26.6667 58.6668L34.6667 52.0002L26.6667 45.3335" stroke="#946CAC" stroke-width="3" stroke-linecap="round" stroke-linejoin="round"/>
<path d="M13.3333 21.3335C17.7515 21.3335 21.3333 17.7518 21.3333 13.3335C21.3333 8.91522 17.7515 5.3335 13.3333 5.3335C8.91497 5.3335 5.33325 8.91522 5.33325 13.3335C5.33325 17.7518 8.91497 21.3335 13.3333 21.3335Z" stroke="#946CAC" stroke-width="3" stroke-linecap="round" stroke-linejoin="round"/>
</svg>
