<svg width="82" height="82" viewBox="0 0 82 82" fill="none" xmlns="http://www.w3.org/2000/svg">
<path d="M71.4425 37.9932C71.4425 54.7007 59.3134 70.349 42.7425 74.9274C41.615 75.2349 40.385 75.2349 39.2575 74.9274C22.6866 70.349 10.5575 54.7007 10.5575 37.9932V22.994C10.5575 20.1923 12.6759 17.0148 15.3067 15.9557L34.3375 8.16576C38.6083 6.42326 43.4258 6.42326 47.6966 8.16576L66.7275 15.9557C69.3242 17.0148 71.4767 20.1923 71.4767 22.994L71.4425 37.9932Z" stroke="#946CAC" stroke-width="3" stroke-linecap="round" stroke-linejoin="round"/>
<path d="M41 42.7082C44.7739 42.7082 47.8333 39.6488 47.8333 35.8748C47.8333 32.1009 44.7739 29.0415 41 29.0415C37.226 29.0415 34.1666 32.1009 34.1666 35.8748C34.1666 39.6488 37.226 42.7082 41 42.7082Z" stroke="#946CAC" stroke-width="3" stroke-miterlimit="10" stroke-linecap="round" stroke-linejoin="round"/>
<path d="M41 42.708V52.958" stroke="#946CAC" stroke-width="3" stroke-miterlimit="10" stroke-linecap="round" stroke-linejoin="round"/>
</svg>
