<svg width="65" height="64" viewBox="0 0 65 64" fill="none" xmlns="http://www.w3.org/2000/svg">
<path d="M37.28 9.36004L41.9733 18.7467C42.6133 20.0534 44.32 21.3067 45.76 21.5467L54.2666 22.96C59.7066 23.8667 60.9866 27.8134 57.0666 31.7067L50.4533 38.32C49.3333 39.44 48.72 41.6 49.0666 43.1467L50.96 51.3334C52.4533 57.8134 49.0133 60.32 43.28 56.9334L35.3066 52.2134C33.8666 51.36 31.4933 51.36 30.0266 52.2134L22.0533 56.9334C16.3466 60.32 12.88 57.7867 14.3733 51.3334L16.2666 43.1467C16.6133 41.6 16 39.44 14.88 38.32L8.26663 31.7067C4.37329 27.8134 5.62663 23.8667 11.0666 22.96L19.5733 21.5467C20.9866 21.3067 22.6933 20.0534 23.3333 18.7467L28.0266 9.36004C30.5866 4.26671 34.7466 4.26671 37.28 9.36004Z" stroke="#946CAC" stroke-width="3" stroke-linecap="round" stroke-linejoin="round"/>
</svg>
